<?xml version="1.0" encoding="UTF-8"?><svg id="Layer_2" xmlns="http://www.w3.org/2000/svg" viewBox="0 0 50 51.35"><defs><style>.cls-1{stroke-width:0px;}</style></defs><g id="Layer_1-2"><path class="cls-1" d="m50,0v25.37h-1.78c-.2-5.73-1.86-10.8-5.65-15.15-1.09,1.13-2.11,2.19-3.14,3.26,6.44,7.85,5.22,18.63-.34,24.76-3.11,3.43-6.95,5.52-11.54,6.16-5.05.7-9.67-.48-13.93-3.48-1,1.09-2.02,2.21-3.08,3.36,4.07,3.51,9,5.02,14.46,5.18v1.89H0v-25.61h1.78c-.05,5.96,1.87,11.17,5.63,15.77,1.1-1.14,2.12-2.2,3.15-3.28-2.94-3.87-4.52-8.16-4.36-13.02.16-4.85,1.86-9.07,5.29-12.57,5.79-5.91,16.25-8.28,24.8-1.87,1.08-1.12,2.15-2.25,3.27-3.42-4.22-3.28-9-5.15-14.43-5.27V0h.56c8.1,0,16.21,0,24.31,0h0ZM8.95,25.77c.11,9.41,7.44,16.13,15.92,16.21,8.11.09,16.02-6.29,16.19-15.94.18-10.5-8.7-16.54-16.18-16.54-7.92,0-15.85,6.56-15.93,16.26h0ZM41.71,2.32v5.49h5.73V2.32h-5.73ZM2.56,43.42v5.49h5.73v-5.49H2.56Z"/><path class="cls-1" d="m28.05,51.35v-2.08c.8-.17,1.6-.3,2.36-.51,8.6-2.32,14.24-7.72,16.85-16.27.18-.58.33-1.17.46-1.76.06-.28.19-.36.46-.36.61.01,1.21,0,1.82-.01v21h-21.95Zm19.39-2.44v-5.49h-5.73v5.49h5.73Z"/><path class="cls-1" d="m0,0h21.95v2.16c-1.26.32-2.53.55-3.75.95C10.22,5.78,5.04,11.17,2.62,19.22c-.14.46-.24.94-.39,1.4-.03.1-.17.22-.26.23-.65.02-1.3.01-1.97.01V0Zm2.56,2.32v5.49h5.73V2.32H2.56Z"/><path class="cls-1" d="m37.04,19.5c-.66,1.15-1.28,2.24-1.88,3.3-.51-.22-1.04-.51-1.6-.66-1.25-.34-2.46-.17-3.42.72-1.08,1-2.05,2.12-3.1,3.22.07.08.21.24.36.38.86.84,1.73,1.67,2.57,2.52,1.2,1.23,3.32,1.2,4.54.49.22-.13.44-.26.7-.41.31.58.6,1.15.92,1.71.31.55.65,1.1.98,1.65,0,.01,0,.05-.03.06-2,.97-4.05,1.59-6.29.92-.99-.29-1.82-.83-2.55-1.54-1.11-1.08-2.21-2.18-3.32-3.27-.08-.07-.16-.14-.38-.34-.93.99-1.84,1.99-2.78,2.95-.93.95-1.9,1.85-2.85,2.78-.04-.02-.08-.04-.12-.06,0-.81.08-1.64-.02-2.44-.15-1.24.24-2.16,1.2-2.97.83-.7,1.54-1.55,2.31-2.33.04-.04.07-.09.06-.08-.88-.91-1.69-1.87-2.62-2.7-.72-.65-1.03-1.33-.95-2.3.08-.98.02-1.97.02-2.96.04-.03.07-.05.11-.08,1.92,1.89,3.83,3.77,5.74,5.64.66-.65,1.3-1.27,1.94-1.9.57-.56,1.14-1.15,1.72-1.7,2.03-1.92,4.37-2.32,6.96-1.37.6.22,1.17.5,1.77.76h0Z"/><path class="cls-1" d="m16.1,33.66h-3.05v-15.49h3.05v15.49Z"/><path class="cls-1" d="m24.99,17.26c-1,0-1.81-.8-1.81-1.78,0-1.09.78-1.9,1.84-1.89,1.04,0,1.85.81,1.85,1.85,0,1.01-.84,1.83-1.88,1.82h0Z"/><path class="cls-1" d="m25.06,34.58c.99.02,1.81.85,1.79,1.8-.02,1.03-.83,1.78-1.92,1.77-1-.01-1.79-.83-1.76-1.81.03-1,.86-1.78,1.89-1.76Z"/></g></svg>